HIERARCHY
ROOT Hips
{
  OFFSET 0.000000 0.000000 0.000000
  CHANNELS 6 Xposition Yposition Zposition Xrotation Yrotation Zrotation
  JOINT Spine
  {
    OFFSET 0.000000 10.000000 0.000000
    CHANNELS 3 Xrotation Yrotation Zrotation
    JOINT Chest
    {
      OFFSET 0.000000 15.000000 0.000000
      CHANNELS 3 Xrotation Yrotation Zrotation
      JOINT Neck
      {
        OFFSET 0.000000 15.000000 0.000000
        CHANNELS 3 Xrotation Yrotation Zrotation
        JOINT Head
        {
          OFFSET 0.000000 10.000000 0.000000
          CHANNELS 3 Xrotation Yrotation Zrotation
          End Site
          {
            OFFSET 0.0 5.0 2.0
          }
        }
      }
      JOINT LeftShoulder
      {
        OFFSET 16.877865 5.000000 0.000000
        CHANNELS 3 Xrotation Yrotation Zrotation
        JOINT LeftArm
        {
          OFFSET 15.000000 0.000000 0.000000
          CHANNELS 3 Xrotation Yrotation Zrotation
          JOINT LeftForeArm
          {
            OFFSET 25.000000 0.000000 0.000000
            CHANNELS 3 Xrotation Yrotation Zrotation
            JOINT LeftHand
            {
              OFFSET 20.000000 0.000000 0.000000
              CHANNELS 3 Xrotation Yrotation Zrotation
              End Site
              {
                OFFSET -3.0 0.0 2.0
              }
            }
          }
        }
      }
      JOINT RightShoulder
      {
        OFFSET -16.877865 5.000000 0.000000
        CHANNELS 3 Xrotation Yrotation Zrotation
        JOINT RightArm
        {
          OFFSET -15.000000 0.000000 0.000000
          CHANNELS 3 Xrotation Yrotation Zrotation
          JOINT RightForeArm
          {
            OFFSET -25.000000 0.000000 0.000000
            CHANNELS 3 Xrotation Yrotation Zrotation
            JOINT RightHand
            {
              OFFSET -20.000000 0.000000 0.000000
              CHANNELS 3 Xrotation Yrotation Zrotation
              End Site
              {
                OFFSET 3.0 0.0 2.0
              }
            }
          }
        }
      }
    }
  }
  JOINT LeftUpLeg
  {
    OFFSET 10.000000 -10.000000 0.000000
    CHANNELS 3 Xrotation Yrotation Zrotation
    JOINT LeftLeg
    {
      OFFSET 0.000000 -45.000000 0.000000
      CHANNELS 3 Xrotation Yrotation Zrotation
      JOINT LeftFoot
      {
        OFFSET 0.000000 -45.000000 0.000000
        CHANNELS 3 Xrotation Yrotation Zrotation
        JOINT LeftToeBase
        {
          OFFSET 0.000000 0.000000 10.000000
          CHANNELS 3 Xrotation Yrotation Zrotation
          End Site
          {
            OFFSET 0.0 -1.0 3.0
          }
        }
      }
    }
  }
  JOINT RightUpLeg
  {
    OFFSET -10.000000 -10.000000 0.000000
    CHANNELS 3 Xrotation Yrotation Zrotation
    JOINT RightLeg
    {
      OFFSET 0.000000 -45.000000 0.000000
      CHANNELS 3 Xrotation Yrotation Zrotation
      JOINT RightFoot
      {
        OFFSET 0.000000 -45.000000 0.000000
        CHANNELS 3 Xrotation Yrotation Zrotation
        JOINT RightToeBase
        {
          OFFSET 0.000000 0.000000 10.000000
          CHANNELS 3 Xrotation Yrotation Zrotation
          End Site
          {
            OFFSET 0.0 -1.0 3.0
          }
        }
      }
    }
  }
}
MOTION
Frames: 11
Frame Time: 0.033333
1.887961 0.164856 1.228905 36.242805 26.520336 -71.727469 -45.925468 -29.234323 -63.229782 -45.925468 -29.234323 -63.229782 -61.011501 -12.988741 -21.879987 2.894166 -2.155221 73.411230 5.961165 -8.728007 -67.928642 1.984029 -2.190571 -90.411881 -57.980527 21.222964 -140.969562 -57.980527 21.222964 -140.969562 0.068587 0.080991 81.954849 -13.284840 -16.483571 77.664119 -116.923135 -50.658700 147.604652 -116.923135 -50.658700 147.604652 3.030710 -0.050099 1.881628 -40.534754 1.360207 3.694905 88.735086 -12.196127 -11.979486 55.397415 2.272134 1.221081 -0.519122 0.017446 3.815067 -19.611271 0.076880 0.377553 34.811378 -10.859877 -3.382202 24.117797 -18.545154 -3.916090
1.685152 0.166749 -0.297947 37.811095 27.017533 -70.381037 -45.650976 -29.184710 -63.483538 -45.650976 -29.184710 -63.483538 -61.445799 -12.806908 -21.393224 2.888321 -2.145559 73.237434 4.237209 -6.347367 -66.384182 -1.502012 1.218684 -92.642915 -69.783028 22.711876 -146.978002 -69.783028 22.711876 -146.978002 0.175949 0.204197 81.720023 -13.827082 -17.373412 76.921269 -117.520068 -50.647249 147.967507 -117.520068 -50.647249 147.967507 3.089836 -0.053739 1.997381 -40.440385 1.424252 3.866736 88.085110 -12.457050 -12.097453 55.740718 1.563059 0.842785 1.600036 -0.057704 3.956121 -17.429088 0.022425 0.141000 33.920911 -11.599353 -3.561927 22.874030 -19.667812 -4.037680
1.735379 0.168700 -0.002415 42.146914 27.465414 -66.241132 -45.231252 -29.107746 -63.871068 -45.231252 -29.107746 -63.871068 -61.762927 -12.707292 -21.095069 2.610388 -1.938600 73.243890 2.127516 -3.228156 -65.282098 -5.721833 5.091785 -94.654877 -80.044736 24.145367 -151.080604 -80.044736 24.145367 -151.080604 0.092851 0.106266 81.482433 -14.188321 -18.037157 76.223042 -118.003240 -50.575947 148.304512 -118.003240 -50.575947 148.304512 2.893309 -0.051605 2.061269 -40.705292 1.426686 3.845197 87.298167 -12.205690 -11.685087 55.467721 2.098585 1.081765 2.032704 -0.074866 4.203036 -17.469993 -0.037743 -0.229080 33.542390 -11.165381 -3.400021 22.405443 -18.810393 -3.806240
1.800982 0.170839 0.381070 47.182652 28.327439 -61.581694 -44.874164 -29.043349 -64.201240 -44.874164 -29.043349 -64.201240 -61.931948 -12.667307 -20.960287 2.251022 -1.681771 73.572537 0.276217 -0.396136 -64.630592 -9.580711 8.471543 -96.259615 -88.125605 25.444165 -153.684889 -88.125605 25.444165 -153.684889 -0.175238 -0.206188 81.295766 -14.345313 -18.429507 75.606654 -119.173460 -50.593926 148.984358 -119.173460 -50.593926 148.984358 2.650264 -0.049200 2.143750 -40.617353 1.396413 3.766587 87.896930 -12.125872 -11.762860 53.421958 2.817479 1.391870 1.802413 -0.067973 4.487764 -18.006759 -0.129268 -0.767925 32.638324 -9.873956 -2.939804 20.978620 -16.522998 -3.187563
1.778902 0.172934 0.902365 50.302887 28.900240 -58.708683 -44.912888 -29.049597 -64.165112 -44.912888 -29.049597 -64.165112 -62.117568 -12.639691 -20.840697 2.108474 -1.594166 74.150512 -1.133695 1.815140 -64.242196 -12.714905 11.040284 -97.675146 -92.265597 26.431342 -154.566378 -92.265597 26.431342 -154.566378 -0.547812 -0.640239 81.187252 -14.463183 -18.744101 75.109509 -121.087035 -50.764277 149.988327 -121.087035 -50.764277 149.988327 2.524318 -0.048644 2.214293 -40.056473 1.265706 3.451869 89.670962 -12.160059 -12.181766 50.317462 3.801403 1.768833 0.533588 -0.019486 4.704113 -18.831696 -0.264066 -1.518266 31.481262 -8.388598 -2.406503 18.897098 -13.912971 -2.440368
1.669534 0.174771 1.417570 50.767586 29.244188 -58.391602 -45.290581 -29.117289 -63.815703 -45.290581 -29.117289 -63.815703 -62.325793 -12.620716 -20.726867 2.165766 -1.662963 74.863909 -1.985255 3.183967 -63.998995 -14.908914 12.739899 -98.880257 -93.534555 27.129355 -154.419397 -93.534555 27.129355 -154.419397 -0.894658 -1.045743 81.119516 -14.583244 -19.037241 74.700220 -123.851335 -50.968364 151.448938 -123.851335 -50.968364 151.448938 2.540952 -0.050390 2.267970 -39.239060 1.055510 2.927609 91.574794 -11.962692 -12.383882 47.956218 5.082582 2.295376 -1.312787 0.056589 4.817006 -19.623297 -0.420957 -2.361798 30.370464 -7.017126 -1.924182 16.785172 -11.411220 -1.751629
1.535330 0.176468 1.455275 49.526195 29.347724 -59.675975 -45.779944 -29.205534 -63.363222 -45.779944 -29.205534 -63.363222 -62.621302 -12.626250 -20.617543 2.365374 -1.836065 75.501398 -2.497609 4.022708 -63.714866 -15.530535 13.087537 -99.857432 -91.989808 27.243798 -153.616110 -91.989808 27.243798 -153.616110 -1.148338 -1.345627 80.992989 -14.764888 -19.330540 74.527918 -126.607231 -50.967984 153.011205 -126.607231 -50.967984 153.011205 2.696753 -0.055551 2.348682 -38.278198 0.834554 2.378409 93.384167 -11.648641 -12.388941 46.568428 6.062539 2.644182 -2.974520 0.127657 4.881342 -20.165615 -0.556151 -3.107866 29.519787 -5.255902 -1.419017 15.358579 -8.345235 -1.186168
1.550197 0.178227 1.323509 50.562976 29.183950 -58.568085 -46.151021 -29.273165 -63.020426 -46.151021 -29.273165 -63.020426 -62.882182 -12.658938 -20.566017 2.614931 -2.040369 75.899756 -2.558642 4.141316 -63.431109 -14.346786 11.972230 -100.407521 -88.792992 26.812470 -152.610146 -88.792992 26.812470 -152.610146 -1.275186 -1.497985 80.839440 -14.901904 -19.495738 74.563555 -128.976383 -50.777439 154.458279 -128.976383 -50.777439 154.458279 2.784351 -0.061039 2.530724 -37.291267 0.692116 2.048853 94.654287 -10.716595 -11.616023 46.109957 7.231213 3.102129 -4.559055 0.198363 4.949267 -20.274041 -0.644510 -3.605704 28.816168 -2.691458 -0.715703 14.539986 -4.070690 -0.523425
1.729659 0.180292 1.556048 56.167837 28.716443 -52.762770 -46.203941 -29.283127 -62.971677 -46.203941 -29.283127 -62.971677 -63.097048 -12.681461 -20.517489 2.814723 -2.197728 75.970789 -2.253403 3.661046 -63.075379 -10.991276 9.114732 -100.442791 -82.566253 25.618739 -150.894073 -82.566253 25.618739 -150.894073 -1.294296 -1.523954 80.683670 -14.792048 -19.307958 74.698500 -130.028749 -50.486982 155.209619 -130.028749 -50.486982 155.209619 2.653669 -0.063472 2.789131 -36.342384 0.658154 2.015284 92.887132 -9.477349 -10.029634 46.006149 8.432911 3.585494 -6.147107 0.268967 4.995312 -20.310022 -0.700754 -3.912230 28.805245 0.075589 0.010412 14.827447 0.498695 0.079738
1.971638 0.182600 1.873362 65.135660 25.294198 -41.828613 -45.987427 -29.245781 -63.172616 -45.987427 -29.245781 -63.172616 -63.265043 -12.684506 -20.456954 2.983284 -2.323488 75.835819 -1.394224 2.261572 -62.723592 -5.497204 4.478425 -99.783507 -73.897659 23.694801 -148.519318 -73.897659 23.694801 -148.519318 -1.243363 -1.465542 80.619283 -14.408747 -18.752583 74.877689 -130.117669 -50.196156 155.422892 -130.117669 -50.196156 155.422892 2.222952 -0.057719 3.118181 -35.121164 0.701159 2.230228 89.409483 -9.120445 -9.076322 45.125924 8.177343 3.423498 -7.426328 0.328539 5.053180 -20.456073 -0.735558 -4.071054 29.093556 2.739921 0.723751 15.296889 4.844261 0.684424
2.309764 0.185029 3.089568 73.775126 16.643497 -25.647047 -45.716918 -29.199290 -63.423738 -45.716918 -29.199290 -63.423738 -63.323041 -12.675263 -20.419896 3.003907 -2.331930 75.639864 -0.008999 -0.015652 -62.398718 0.874324 -1.044973 -98.315205 -62.524684 21.221538 -144.931874 -62.524684 21.221538 -144.931874 -1.295217 -1.525181 80.658578 -14.001001 -18.126829 75.187745 -129.540902 -49.798092 155.328520 -129.540902 -49.798092 155.328520 1.340854 -0.032962 3.618283 -34.343592 0.727225 2.362933 86.655998 -8.732952 -8.203181 45.340592 8.148726 3.463981 -8.405714 0.376466 5.116143 -20.981133 -0.777124 -4.186170 30.083985 4.786747 1.309847 16.836479 8.084421 1.241903
